HIERARCHY
ROOT Hips
{
	OFFSET -3.958830 18.904000 13.208200
	CHANNELS 6 Xposition Yposition Zposition Zrotation Yrotation Xrotation 
	JOINT LHipJoint
	{
		OFFSET 0.000000 0.000000 0.000000
		CHANNELS 3 Zrotation Yrotation Xrotation
		JOINT LeftUpLeg
		{
			OFFSET 1.800000 -1.400000 0.085000
			CHANNELS 3 Zrotation Yrotation Xrotation
			JOINT LeftLeg
			{
				OFFSET 2.215000 -6.000000 0.000000
				CHANNELS 3 Zrotation Yrotation Xrotation
				JOINT LeftFoot
				{
					OFFSET 2.500000 -6.900000 0.000000
					CHANNELS 3 Zrotation Yrotation Xrotation
					JOINT LeftToeBase
					{
						OFFSET 0.200000 -0.500000 1.950000
						CHANNELS 3 Zrotation Yrotation Xrotation
						End Site
						{
							OFFSET 0.000000 0.000000 0.000000
						}
					}
				}
			}
		}
	}
	JOINT RHipJoint
	{
		OFFSET 0.000000 0.000000 0.000000
		CHANNELS 3 Zrotation Yrotation Xrotation
		JOINT RightUpLeg
		{
			OFFSET -1.800000 -1.400000 0.085000
			CHANNELS 3 Zrotation Yrotation Xrotation
			JOINT RightLeg
			{
				OFFSET -2.215000 -6.000000 0.000000
				CHANNELS 3 Zrotation Yrotation Xrotation
				JOINT RightFoot
				{
					OFFSET -2.500000 -6.900000 0.000000
					CHANNELS 3 Zrotation Yrotation Xrotation
					JOINT RightToeBase
					{
						OFFSET -0.200000 -0.500000 1.950000
						CHANNELS 3 Zrotation Yrotation Xrotation
						End Site
						{
							OFFSET 0.000000 0.000000 0.000000
						}
					}
				}
			}
		}
	}
	JOINT LowerBack
	{
		OFFSET 0.000000 0.000000 0.000000
		CHANNELS 3 Zrotation Yrotation Xrotation
		JOINT Spine
		{
			OFFSET -0.087000 1.940000 -0.288900
			CHANNELS 3 Zrotation Yrotation Xrotation
			JOINT Spine1
			{
				OFFSET 0.000000 1.950000 0.060000
				CHANNELS 3 Zrotation Yrotation Xrotation
				JOINT Neck
				{
					OFFSET 0.000000 0.000000 0.000000
					CHANNELS 3 Zrotation Yrotation Xrotation
					JOINT Neck1
					{
						OFFSET 0.000000 1.600000 0.340000
						CHANNELS 3 Zrotation Yrotation Xrotation
						JOINT Head
						{
							OFFSET 0.000000 1.667000 -0.240000
							CHANNELS 3 Zrotation Yrotation Xrotation
							End Site
							{
								OFFSET 0.000000 0.000000 0.000000
							}
						}
					}
				}
				JOINT LeftShoulder
				{
					OFFSET 0.000000 0.000000 0.000000
					CHANNELS 3 Zrotation Yrotation Xrotation
					JOINT LeftArm
					{
						OFFSET 2.700000 1.550000 -0.730000
						CHANNELS 3 Zrotation Yrotation Xrotation
						JOINT LeftForeArm
						{
							OFFSET 5.450000 0.000000 0.000000
							CHANNELS 3 Zrotation Yrotation Xrotation
							JOINT LeftHand
							{
								OFFSET 3.450000 0.000000 0.000000
								CHANNELS 3 Zrotation Yrotation Xrotation
								JOINT LeftHandIndex1
								{
									OFFSET 0.750000 0.000000 0.000000
									CHANNELS 3 Zrotation Yrotation Xrotation
									End Site
									{
										OFFSET 0.000000 0.000000 0.000000
									}
								}
							}
						}
					}
				}
				JOINT RightShoulder
				{
					OFFSET 0.000000 0.000000 0.000000
					CHANNELS 3 Zrotation Yrotation Xrotation
					JOINT RightArm
					{
						OFFSET -2.700000 1.550000 -0.730000
						CHANNELS 3 Zrotation Yrotation Xrotation
						JOINT RightForeArm
						{
							OFFSET -5.450000 0.000000 0.000000
							CHANNELS 3 Zrotation Yrotation Xrotation
							JOINT RightHand
							{
								OFFSET -3.450000 0.000000 0.000000
								CHANNELS 3 Zrotation Yrotation Xrotation
								JOINT RightHandIndex1
								{
									OFFSET -0.750000 0.000000 0.000000
									CHANNELS 3 Zrotation Yrotation Xrotation
									End Site
									{
										OFFSET 0.000000 0.000000 0.000000
									}
								}
							}
						}
					}
				}
			}
		}
	}
}
MOTION
Frames: 14
Frame Time: 0.016667
1.066840 17.160190 -0.349030 -6.967349 -1.196169 -12.713740 -15.124703 13.130346 2.571967 3.633734 -0.406057 6.988035 -5.324780 6.247027 9.729729 -0.583983 5.660143 2.924604 0.386650 -0.034210 0.355180 18.639548 -8.980529 4.178485 0.455870 2.595637 -57.549745 4.108212 -9.503027 38.454540 -0.387855 -5.535886 2.446803 0.197260 0.447740 0.258900 -4.193069 -3.821040 -7.763934 21.390494 -16.743521 26.911207 -4.347871 -14.251784 10.325200 -3.679182 -2.356521 -7.737810 -8.270863 3.764710 30.493190 -10.261910 8.288260 -9.016130 -1.628148 -11.299922 -1.254676 3.725423 -32.020437 -7.644053 67.169487 -26.534426 -20.458535 -4.356396 2.677938 0.545060 0.459050 -0.275390 0.140890 9.309907 4.001712 5.606629 49.143774 -1.872697 -12.742580 26.885718 60.569277 10.010831 1.334672 -1.954969 -0.427920 0.327010 0.146500 -0.448010 
1.065770 17.161540 -0.348910 -6.960438 -1.182018 -12.729457 -15.125759 13.154325 2.572186 3.710619 -0.428563 6.858534 -5.401411 6.286784 9.963995 -0.588904 5.668144 2.919031 0.380720 -0.041060 0.352140 18.633112 -8.994536 4.160635 0.350325 2.565762 -57.172052 4.128257 -9.610775 38.785216 -0.399052 -5.592734 2.429330 0.193450 0.442500 0.249690 -4.181161 -3.849668 -7.763471 21.274901 -16.704671 26.916137 -4.370530 -14.207383 10.395595 -3.584156 -2.464504 -7.832795 -8.538820 3.800253 30.735466 -10.284300 8.262970 -9.098350 -1.666483 -11.359713 -1.147652 2.996566 -31.812614 -7.500135 67.488587 -27.149231 -20.964851 -4.342473 2.660851 0.554890 0.450800 -0.274490 0.136710 9.138514 4.186857 5.687647 49.254183 -1.850103 -12.804842 26.819511 60.300438 9.917701 1.337608 -1.940471 -0.434480 0.331840 0.150740 -0.451980 
1.058420 17.161230 -0.352260 -6.810439 -1.317071 -12.687938 -15.131811 13.204818 2.575903 3.744149 -0.458902 6.519913 -5.583112 6.370092 10.486339 -0.585399 5.680345 2.913926 0.365230 -0.056740 0.335370 18.617978 -9.005380 4.142308 0.480914 2.713890 -56.613780 3.593388 -9.509145 39.395232 -0.407836 -5.633179 2.421457 0.181390 0.443910 0.236880 -4.147843 -3.929947 -7.771284 20.749704 -16.424807 26.915856 -4.254069 -13.998163 10.565982 -3.494731 -2.604872 -8.085094 -8.965405 3.918395 31.257591 -10.028120 8.206550 -8.863670 -1.623837 -11.570805 -0.899806 1.562212 -31.502924 -7.266793 67.966657 -28.031896 -21.785051 -4.321999 2.643269 0.562870 0.440610 -0.277400 0.135180 8.866813 4.638411 5.896677 49.563040 -1.876361 -12.988867 26.706794 59.957316 9.737470 1.345896 -1.922004 -0.441460 0.337630 0.158820 -0.449830 
1.045630 17.157570 -0.358490 -6.507861 -1.623046 -12.472054 -15.138589 13.249016 2.568429 3.569074 -0.463111 5.901300 -5.697536 6.434972 11.237060 -0.581346 5.664455 2.919116 0.355030 -0.064840 0.314570 18.605368 -9.001020 4.155053 0.705453 3.038027 -56.241068 2.746297 -9.333006 40.456576 -0.426479 -5.727298 2.404835 0.171710 0.450720 0.223770 -4.116407 -4.012472 -7.787466 20.030537 -15.989762 26.822452 -4.181415 -13.661591 10.654444 -3.421888 -2.780519 -8.346083 -9.466091 4.136580 31.799403 -9.457730 8.096270 -8.510000 -1.614089 -11.632313 -0.630755 -0.348547 -31.214994 -6.878101 68.572617 -29.238727 -22.873555 -4.292329 2.623296 0.565900 0.432180 -0.281330 0.142180 8.650229 5.026099 6.084328 50.058893 -1.915368 -13.115010 26.804155 59.545570 9.657466 1.356741 -1.903992 -0.444490 0.345650 0.161320 -0.441310 
1.030640 17.153270 -0.363770 -6.168740 -2.005665 -12.320684 -15.145666 13.300050 2.563319 3.356531 -0.493691 5.265885 -5.796159 6.520754 12.210602 -0.570984 5.656948 2.919276 0.355590 -0.060390 0.305390 18.590239 -9.004240 4.161862 0.988705 3.378816 -55.712096 1.818223 -9.117072 41.619330 -0.457679 -5.828223 2.381767 0.165820 0.448590 0.213490 -4.079935 -4.100747 -7.803972 19.226306 -15.509978 26.793469 -4.090986 -13.287718 10.674351 -3.353252 -2.954602 -8.527016 -10.009183 4.358613 32.420952 -8.893070 7.968480 -8.442900 -1.784428 -11.577624 -0.441215 -2.345671 -31.151365 -6.455871 69.016310 -30.417781 -23.904334 -4.253288 2.600822 0.572580 0.416570 -0.274400 0.150020 8.627778 5.303067 6.211284 50.580440 -1.952201 -13.250224 26.752763 59.038595 9.501973 1.372211 -1.882906 -0.440760 0.353200 0.156300 -0.432480 
1.014550 17.146770 -0.366560 -5.830176 -2.392595 -12.117527 -15.151107 13.349455 2.548518 3.013674 -0.547185 4.487514 -5.671537 6.569836 13.422670 -0.563475 5.636803 2.921579 0.353300 -0.057940 0.296330 18.577378 -9.010243 4.176772 1.320778 3.729918 -55.243240 0.893140 -8.896941 42.832636 -0.487858 -5.949020 2.351710 0.159300 0.448680 0.203680 -4.048949 -4.179223 -7.815078 18.458805 -15.051201 26.643381 -4.064529 -12.929225 10.560626 -3.291929 -3.076048 -8.613040 -10.432647 4.542559 32.948657 -8.333310 7.856670 -8.224250 -2.140159 -11.410276 -0.341556 -4.127221 -31.247018 -6.003751 69.397062 -31.485942 -24.796470 -4.221405 2.579616 0.570910 0.406200 -0.272720 0.153650 8.814596 5.403328 6.263865 51.067889 -2.035449 -13.287629 26.799851 58.326333 9.378335 1.391082 -1.862069 -0.435280 0.357290 0.153250 -0.423430 
0.998260 17.136510 -0.365440 -5.531899 -2.888002 -11.790324 -15.155648 13.376292 2.527290 2.671572 -0.671758 3.559166 -5.619961 6.635004 14.753510 -0.556528 5.629810 2.919767 0.354100 -0.054950 0.289190 18.569498 -8.999060 4.218802 1.787618 4.206373 -55.010817 -0.090743 -8.611724 44.053512 -0.516726 -6.075162 2.324611 0.156150 0.450990 0.197090 -4.026526 -4.234395 -7.831221 17.840620 -14.572338 26.297578 -4.068594 -12.524762 10.333004 -3.217118 -3.118799 -8.597744 -10.665419 4.634167 33.404421 -7.865050 7.769910 -7.813190 -2.538273 -11.049422 -0.357345 -5.669467 -31.516295 -5.436583 69.535084 -32.545149 -25.495556 -4.193045 2.561796 0.564300 0.403280 -0.274980 0.160810 9.016727 5.275377 6.247052 51.560852 -2.161658 -13.220579 26.829213 57.416498 9.231754 1.406714 -1.846561 -0.430100 0.357600 0.146520 -0.416230 
0.982630 17.126870 -0.363820 -5.398721 -3.664688 -11.589289 -15.153248 13.379601 2.505429 2.469971 -0.838046 2.799436 -5.603634 6.718729 16.030628 -0.548991 5.650178 2.906977 0.356180 -0.053170 0.289520 18.569284 -8.988561 4.275899 2.526810 4.867398 -54.676195 -0.995912 -8.244483 45.061386 -0.545279 -6.152851 2.309030 0.151600 0.449620 0.193470 -4.024531 -4.231363 -7.848986 17.528830 -14.120993 26.123732 -4.081899 -12.059949 10.124328 -3.170221 -3.185931 -8.566618 -10.919583 4.719802 33.847376 -7.546950 7.711230 -7.645710 -2.898687 -10.736376 -0.391090 -6.680957 -31.615265 -5.040537 69.596713 -33.434750 -26.028316 -4.166906 2.544058 0.564550 0.396880 -0.272230 0.163830 9.236450 5.209691 6.217460 51.971671 -2.215992 -13.189147 26.553483 56.294470 8.892729 1.424007 -1.821931 -0.425430 0.358690 0.142010 -0.412250 
0.968590 17.117890 -0.367720 -5.248509 -4.478171 -11.549530 -15.149231 13.370119 2.486995 2.271257 -1.051275 2.072273 -5.629823 6.832239 17.467046 -0.539209 5.699712 2.882383 0.358310 -0.047550 0.287450 18.571432 -8.977760 4.340961 3.368784 5.538527 -54.426258 -1.995518 -7.732223 45.777575 -0.566004 -6.175662 2.307267 0.151090 0.447060 0.191260 -4.028071 -4.203767 -7.872695 17.183060 -13.682387 26.259302 -4.014340 -11.605737 9.900386 -3.217981 -3.196193 -8.534900 -11.010621 4.776855 34.142607 -7.325000 7.718890 -7.599080 -3.114939 -10.580549 -0.422336 -6.904411 -31.524875 -4.928912 69.511317 -33.984502 -26.245664 -4.147152 2.535585 0.566220 0.390790 -0.266720 0.168050 9.515094 5.233907 6.163046 52.402829 -2.161456 -13.197775 25.771351 54.942000 8.265105 1.440410 -1.793615 -0.422260 0.359200 0.137320 -0.408110 
0.955470 17.112940 -0.376820 -5.237462 -5.385571 -11.769371 -15.139515 13.356327 2.473365 2.303709 -1.362122 1.482297 -5.750990 7.008443 19.072497 -0.526099 5.802764 2.835470 0.371020 -0.036820 0.300920 18.575237 -8.984429 4.396870 4.451544 6.218441 -53.926524 -2.975831 -7.082227 45.876799 -0.573116 -6.077099 2.344816 0.152120 0.433390 0.192200 -4.041095 -4.137484 -7.895869 16.973871 -13.305105 26.792438 -3.882308 -11.160637 9.792155 -3.323820 -3.128195 -8.548380 -10.957578 4.825631 34.511470 -7.198630 7.814740 -7.918850 -3.135497 -10.702847 -0.432316 -6.303612 -31.261465 -5.179369 69.197855 -33.944830 -26.021396 -4.129755 2.537504 0.579720 0.378180 -0.252790 0.170210 9.722680 5.438465 6.152507 53.007527 -2.034391 -13.417561 24.359909 53.654900 7.344985 1.451500 -1.761050 -0.417810 0.357210 0.128040 -0.411580 
0.942450 17.109760 -0.389780 -5.254546 -6.262838 -12.087188 -15.130643 13.332318 2.467563 2.527048 -1.773033 0.885925 -6.129910 7.284297 20.777984 -0.498333 5.955653 2.765657 0.381850 -0.022540 0.314890 18.577944 -8.984136 4.454151 5.528363 6.845564 -53.441900 -3.727715 -6.435113 45.396538 -0.563216 -5.892464 2.402784 0.153530 0.412640 0.197670 -4.051693 -4.062981 -7.926121 16.713474 -12.980972 27.504995 -3.666484 -10.783998 9.670692 -3.467056 -2.965234 -8.527645 -10.682003 4.836472 34.843230 -7.366070 8.101020 -8.241230 -3.121757 -10.930455 -0.453746 -4.883346 -30.836056 -5.652150 68.740141 -33.533498 -25.421811 -4.120447 2.555623 0.587180 0.366770 -0.235090 0.168080 9.989796 5.668261 6.086030 53.526816 -1.711367 -13.537537 22.600945 52.054353 6.271893 1.469688 -1.729250 -0.407450 0.344470 0.117910 -0.414490 
0.933080 17.108380 -0.402270 -5.352206 -7.270427 -12.406350 -15.122105 13.292504 2.461996 2.871105 -2.222151 0.303143 -6.609430 7.606154 22.423447 -0.474556 6.144767 2.686580 0.385160 -0.015820 0.322920 18.583879 -8.964810 4.525502 6.753187 7.534988 -52.993900 -4.379540 -5.743988 44.338906 -0.531840 -5.609772 2.498839 0.154910 0.402640 0.200880 -4.068830 -3.979094 -7.955916 16.630430 -12.707911 28.225339 -3.401050 -10.412515 9.582624 -3.650556 -2.833383 -8.486864 -10.421713 4.907526 35.062914 -7.678560 8.460270 -8.592760 -2.938040 -11.109748 -0.481632 -3.188926 -30.429993 -6.159842 68.233730 -32.590212 -24.520709 -4.126590 2.571665 0.595520 0.363090 -0.223100 0.166370 10.165858 5.866550 5.976904 53.791347 -1.295456 -13.502737 21.055476 50.238209 5.328470 1.482521 -1.690161 -0.406210 0.342780 0.115430 -0.419040 
0.927230 17.107420 -0.415220 -5.583182 -8.105213 -12.698824 -15.112427 13.237910 2.455376 3.467730 -2.733831 -0.290121 -7.277259 7.995291 23.920763 -0.442216 6.361923 2.602491 0.376080 -0.016160 0.320280 18.593227 -8.933442 4.598440 7.822931 8.135371 -52.740410 -4.548215 -5.268852 42.916807 -0.483671 -5.291010 2.613528 0.153490 0.403500 0.198000 -4.095756 -3.885062 -7.984272 16.778565 -12.612013 28.882423 -3.149973 -10.166652 9.556828 -3.830600 -2.698244 -8.493800 -10.109978 4.978389 35.194518 -8.019940 8.834690 -8.768960 -2.643604 -11.397134 -0.458161 -1.199839 -29.867155 -6.771405 67.831320 -31.267558 -23.457679 -4.146445 2.581653 0.595260 0.367440 -0.218190 0.163970 10.236667 6.128472 5.911714 53.950638 -0.912366 -13.448683 19.772235 48.582059 4.543808 1.494624 -1.650430 -0.409630 0.349330 0.117380 -0.419460 
0.922490 17.109980 -0.430560 -5.819718 -8.872193 -13.105293 -15.105467 13.181001 2.465176 4.227255 -3.277432 -0.730885 -8.163769 8.462506 25.245806 -0.403611 6.611224 2.499542 0.379070 -0.008960 0.329750 18.598883 -8.897478 4.654682 8.704125 8.618444 -52.432692 -4.289036 -4.921876 40.975793 -0.425289 -4.895269 2.744125 0.155260 0.388610 0.201560 -4.114817 -3.801376 -8.014544 16.912800 -12.592140 29.742646 -2.816376 -9.971269 9.602874 -4.047598 -2.644265 -8.533422 -9.943185 5.078809 35.243133 -8.380640 9.149470 -9.192340 -2.339528 -11.759551 -0.405496 0.945406 -29.166810 -7.504423 67.663787 -29.543239 -22.325873 -4.163091 2.609049 0.600690 0.362120 -0.205900 0.157460 10.379219 6.512591 5.890247 53.866337 -0.564928 -13.451406 18.668434 47.289866 3.903937 1.505945 -1.624938 -0.405340 0.342990 0.115490 -0.424270 
